<?xml version="1.0" encoding="utf-8"?>
<!-- Generator: Adobe Illustrator 21.1.0, SVG Export Plug-In . SVG Version: 6.00 Build 0)  -->
<svg version="1.1" id="Layer_1" xmlns="http://www.w3.org/2000/svg" xmlns:xlink="http://www.w3.org/1999/xlink" x="0px" y="0px"
	 viewBox="0 0 2500 2000" style="enable-background:new 0 0 2500 2000;" xml:space="preserve">
<style type="text/css">
	.st0{fill:#8ACEC7;}
</style>
<g>
	<path class="st0" d="M806.9,1330.8h-38.7c-15.1,0-28,12.9-28,28l0,111.7h0v267c0,15.1,12.9,28,34.4,28h38.7c15.1,0,28-12.9,28-28
		v-52.6v0v-326.1C841.3,1343.7,828.4,1330.8,806.9,1330.8z"/>
	<path class="st0" d="M1771.9,1330.8h-38.7c-21.5,0-34.4,12.9-34.4,28v326.1v0v52.6c0,15.1,12.9,28,28,28h38.7
		c21.5,0,34.4-12.9,34.4-28v-267h0l0-111.7C1799.9,1343.7,1787,1330.8,1771.9,1330.8z"/>
	<path class="st0" d="M1799.9,709v-78.6l0,0l0-52.6c0-15.1-12.9-28-28-28h-38.7c-1.3,0-2.7,0.1-3.9,0.1c-8-0.8-15.5,1.9-20.9,7.3
		l-188.8,188.8h0l-20.9,20.9c-0.8,0.6-1.5,1.2-2.2,1.9l-188.8,188.8c0,0,0,0,0,0l-37.7,37.7l-37.7-37.7c0,0,0,0,0,0l-188.8-188.8
		c-0.7-0.7-1.4-1.3-2.2-1.9l-20.9-20.9h0L831.7,557.3c-5.5-5.5-12.9-8.1-20.9-7.3c-1.3-0.1-2.6-0.1-3.9-0.1h-38.7
		c-15.1,0-28,12.9-28,28l0,52.6l0,0V709c0,0,0,0,0,0v52.6v0v240c0,15.1,12.9,28,34.4,28h38.7c15.1,0,28-12.9,28-28l0-25.6l0,21.3
		v-40.8c0,0,0,0,0,0l0-93.1v-18.6c0,0,0,0,0,0V709.9L1028,896.6c0.7,0.7,1.4,1.3,2.2,1.9l209.7,209.7c7.5,7.5,19.8,16.1,30.2,16.1
		c11.4,0,22.7-8.5,30.2-16.1l209.7-209.7c0.7-0.6,1.5-1.2,2.2-1.9l186.7-186.7v134.9c0,0,0,0,0,0v18.6l0,93.1c0,0,0,0,0,0V976h0
		l0,25.6c0,15.1,12.9,28,28,28h38.7c21.5,0,34.4-12.9,34.4-28v-240v0L1799.9,709C1799.9,709,1799.9,709,1799.9,709z"/>
</g>
<g>
	<path class="st0" d="M1987.1,259.4h-462.6c-15.1,0-28,12.9-28,28l0,169.6l-0.1,0.1v129.2l3.4-3.4h0l45.3-45.3l52.5-52.5v-47.1
		l0.1,0v-77.5h383c213,0,391.6,167.8,391.6,378.7c0,217.3-178.6,391.6-389.4,391.6h-215.9l-52.6,0v0h-116.6l-73.1,0c0,0,0,0,0,0
		c-0.1,0-0.4,0-0.7,0c-7.3-0.2-14,2.4-19,7.4l-230.6,230.6h0l-3.7,3.7l-3.6-3.6h0l-230.6-230.6c-5-5-11.6-7.6-18.8-7.5
		c-0.2,0-0.4,0-0.6,0c-0.7,0-1.2,0-1.2,0c0,0,0,0,0,0l-73.1,0H825.8v0l-52.6,0H557.3c-210.8,0-389.4-174.3-389.4-391.6
		c0-210.8,178.6-378.7,391.6-378.7h383v149.2c0,2.9,0,8,0,14.9l58.3,58.3h0l20.9,20.9c0.8,0.6,1.5,1.2,2.2,1.9l21,21
		c-0.7-29.6-1.4-59.8-1.4-89.1l0-28v-52.6l0,0l0-169.8c0-15.1-12.9-28-28-28H553c-266.8,0-486.2,217.3-486.2,481.9
		c0,268.9,219.5,488.4,484.1,488.4h391.6v507.8c0,15.1,12.9,28,34.4,28h38.7c15.1,0,28-12.9,28-28l0-449l0.2,0.2c0,0,0,0,0,0
		l188.8,188.8c9.3,9.3,21.4,18.7,37.8,17.8c17.3,0.1,28.9-8.6,38.1-17.9l188.1-188.1l0,448.1c0,15.1,12.9,28,28,28h38.7
		c21.5,0,34.4-12.9,34.4-28v-507.8h391.6c264.6,0,484.1-219.5,484.1-488.4C2473.3,476.7,2253.9,259.4,1987.1,259.4z"/>
</g>
</svg>
